<?xml version="1.0" encoding="UTF-8"?>
<svg id="_レイヤー_1" data-name="レイヤー_1" xmlns="http://www.w3.org/2000/svg" viewBox="0 0 822.94 60">
  <defs>
    <style>
      .cls-1 {
        fill: #35362d;
      }
    </style>
  </defs>
  <path class="cls-1" d="M0,59.09V1.1h18.53v58.01H0v-.02Z"/>
  <path class="cls-1" d="M93.89,59.09l-21.16-27.17c-1.07-1.33-2.05-3.15-2.05-3.15v30.32h-18.43V1.1h16.87l21.06,27.02c1.27,1.56,2.15,3.32,2.15,3.32V1.1h18.43v58.01h-16.87v-.02Z"/>
  <path class="cls-1" d="M159.91,60c-13.16,0-22.53-6.72-26.82-11.61l12.97-8.54c4.97,4.63,10.14,6.62,14.34,6.62,4.58,0,6.63-1.99,6.63-4.31,0-6.3-30.91-7.3-30.91-24.78,0-10.45,10.63-17.4,24.96-17.4s23.21,8.94,23.21,8.94l-12.29,9.04s-6.05-4.23-11.51-4.23c-4.58,0-5.85,1.58-5.85,3.4,0,6.14,31.01,6.95,31.01,24.7,0,12.26-13.46,18.15-25.74,18.15Z"/>
  <path class="cls-1" d="M242.39,15.02v44.09h-18.53V15.02h-15.41V1.1h49.32v13.92h-15.41.02Z"/>
  <path class="cls-1" d="M319.9,39.3v19.79h-18.43v-19.79L278.27,1.1h21.26l9.46,18.73c1.17,2.07,1.75,3.65,1.75,3.65,0,0,.59-1.58,1.85-3.73l9.36-18.64h21.16l-23.21,38.2-.02-.02Z"/>
  <path class="cls-1" d="M365.34,59.09V1.1h18.53v44.09h25.06v13.92h-43.57l-.02-.02Z"/>
  <path class="cls-1" d="M430.09,59.09V1.1h44.45v13.92h-25.94v8.36h18.24v12.09h-18.24v9.69h29.26v13.92h-47.77Z"/>
  <path class="cls-1" d="M535.99,59.53c-19.46,0-27.05-13.65-27.05-26.55s7.51-26.63,27.05-26.63c8.46,0,15.1,2.38,22.17,9.35l-11.95,7.72c-3.41-3.63-6.9-4.52-10.22-4.52-7.51,0-10.57,6.37-10.57,13.88,0,6.08,1.66,14.46,10.57,14.46,4.27,0,7.24-1.7,8.04-2.53v-3.26h-6.63v-9.95h21.73v17.21c-5.25,6.45-13.19,10.83-23.13,10.83v-.02Z"/>
  <path class="cls-1" d="M608.53,58.93l-10.22-18.93h-4.72v18.93h-16.58V6.99h23.31c12.41,0,21.9,5.64,21.9,16.84,0,7.2-3.41,11.07-8.64,13.44l13.71,21.67h-18.76ZM598.84,19.31h-5.23v9.35h5.23c5.25,0,6.9-1.78,6.9-4.6s-1.66-4.75-6.9-4.75Z"/>
  <path class="cls-1" d="M664.74,59.59c-15.72,0-27.4-9.95-27.4-26.71s11.7-26.55,27.4-26.55,27.5,9.71,27.5,26.55-11.7,26.71-27.5,26.71ZM664.74,19.02c-5.68,0-11,3.86-11,13.87s5.32,14.02,11,14.02,11.08-3.71,11.08-14.02-5.32-13.87-11.08-13.87Z"/>
  <path class="cls-1" d="M759.46,37.71c0,14.1-11.78,22.03-26.1,22.03s-26.19-7.94-26.19-22.03V6.99h16.58v31.17c0,6.53,4.37,9.06,9.59,9.06s9.52-2.53,9.52-9.06V6.99h16.58v30.72h.02Z"/>
  <path class="cls-1" d="M802.05,41.8h-6.81v17.36h-16.58V7.21h23.38c11.25,0,20.95,5.87,20.95,17.44s-9.77,17.15-20.95,17.15ZM799.79,19.54h-4.54v10.02h4.54c4.62,0,6.98-1.49,6.98-4.96s-2.19-5.04-6.98-5.04v-.02Z"/>
</svg>